<svg version="1.0" xmlns="http://www.w3.org/2000/svg" viewBox="0 0 1274 1085" preserveAspectRatio="xMidYMid meet">
 <g fill="#000000">
  <path d="M266 780.5 c0 -1.5 337.6 -594.9 338.7 -595.2 0.4 -0.1 2.2 2.3 3.9 5.5 3.9 7.1 330.9 582.5 333.6 587 l2 3.2 -339.1 0 c-186.5 0 -339.1 -0.2 -339.1 -0.5z m622 -23 c0 -0.3 -8 -15.9 -17.9 -34.8 -9.8 -18.8 -73.3 -140.6 -141.1 -270.7 -67.7 -130.1 -123.5 -236.8 -123.8 -237.2 -0.4 -0.4 -6.8 11.1 -14.3 25.5 -7.5 14.4 -50.8 97.3 -96.2 184.2 -45.3 86.9 -100.8 193.3 -123.2 236.5 -22.4 43.2 -42.9 82.7 -45.6 87.8 l-5 9.2 283.6 0 c155.9 0 283.5 -0.2 283.5 -0.5z"/>
  <path d="M329 751.9 c0 -3.5 35.6 -72.2 180.8 -349.2 l91.7 -174.8 3.5 0.3 3.4 0.3 135.7 259.5 c107.8 206.1 135.8 260.3 135.8 263.3 l0.1 3.7 -275.5 0 -275.5 0 0 -3.1z m503 -21.3 c0 -0.3 -4.9 -10.6 -10.9 -23 l-11 -22.6 -205.4 0 -205.3 0 -11.2 23 -11.1 23 227.5 0 c125.1 0 227.4 -0.2 227.4 -0.4z m-305.2 -68.6 c-19.1 -12.5 -36.2 -31.8 -46.8 -53 -8.2 -16.3 -12.6 -32.9 -13.9 -52.5 l-0.6 -10 -28.4 59.5 c-15.6 32.7 -28.6 59.8 -28.8 60.3 -0.2 0.4 28.1 0.7 62.8 0.7 l63.3 0 -7.6 -5z m273.8 3.3 c-0.4 -1 -13.2 -27.8 -28.4 -59.6 l-27.7 -57.7 -0.7 5.2 c-0.3 2.9 -1.2 9.3 -1.8 14.2 -4.7 37.5 -26.6 72.3 -58.9 94 l-8.4 5.6 63.3 0 c59.8 0 63.2 -0.1 62.6 -1.7z m-175.4 -2.3 c22 -4.5 40.9 -13.8 57.7 -28.4 27.7 -24 44.7 -64.7 41 -97.9 -5 -44 -29.2 -79 -68.4 -98.5 -39.6 -19.7 -85.1 -15.2 -121.4 11.8 -9.6 7.2 -22.2 20.4 -28.4 29.7 -21 31.6 -26 68.2 -14 103.3 18.8 55.2 78.8 91.1 133.5 80z m43.9 -272 c-11.3 -23.6 -20.8 -43 -21.1 -43 -0.3 0 -7.3 13.2 -15.6 29.3 l-15.1 29.2 8.6 1.2 c19.2 2.8 39.6 10.3 54.8 20.4 4.9 3.1 8.9 5.8 8.9 5.8 0.1 0.1 -9.1 -19.2 -20.5 -42.9z m-145.7 40.1 c2.7 -2.5 21.7 -12.5 29.8 -15.7 8.2 -3.2 19.2 -6 29.8 -7.5 4.7 -0.6 8.6 -1.3 8.8 -1.4 0.1 -0.1 -4.4 -9.2 -10.2 -20.1 -5.7 -11 -12.6 -24.3 -15.3 -29.7 l-4.9 -9.8 -11.1 23.3 c-6.1 12.8 -15.4 32.2 -20.7 43.1 -5.2 10.8 -9.2 19.7 -8.9 19.7 0.4 0 1.6 -0.9 2.7 -1.9z m70.1 -88.2 l1.1 -6.4 8.3 -0.3 8.4 -0.3 -0.7 7.1 c-0.4 4.6 -0.3 7 0.4 7 1.3 0 1.7 -1.2 2.5 -8.2 l0.6 -5.8 7 0 c6.2 0 7 -0.2 6.7 -1.7 -0.3 -1.5 -1.6 -1.9 -6.7 -2.1 l-6.3 -0.3 0.7 -7.2 c0.4 -4 0.9 -7.5 1.2 -7.9 0.2 -0.5 3.5 -0.8 7.4 -0.8 5.5 0 6.9 -0.3 6.9 -1.5 0 -1.2 -1.4 -1.5 -6.6 -1.5 l-6.6 0 0.4 -7 c0.5 -9.4 -1.6 -9.6 -2.8 -0.2 l-0.9 6.7 -8.4 0.3 -8.4 0.3 0.7 -7.1 c0.4 -4.6 0.3 -7 -0.4 -7 -1.3 0 -1.7 1.2 -2.5 8.3 l-0.6 5.7 -7 0 c-5.5 0 -6.9 0.3 -6.9 1.5 0 1.2 1.4 1.5 6.5 1.5 7.3 0 7 -0.7 5.9 9.9 l-0.7 6.1 -6.8 0 c-6.2 0 -6.9 0.2 -6.9 2 0 1.8 0.7 2 6.1 2 l6.1 0 -0.4 7 c-0.5 8.9 1.3 8.8 2.7 -0.1z"/>
  <path d="M428.6 721.8 c-3.8 -9.1 -8.6 -24.4 -8.6 -27.4 l0 -3.4 4.9 0 5 0 1.7 5.5 1.8 5.6 1.6 -5.3 1.6 -5.3 5.1 -0.3 5.1 -0.3 1.8 5.3 1.7 5.3 1.5 -5.2 1.5 -5.3 8.7 0 8.7 0 3.4 7.3 3.4 7.3 3.2 -7.1 3.2 -7 5.1 -0.3 c4.9 -0.3 5 -0.2 5 2.4 l0 2.7 2.5 -2.3 c2.8 -2.6 11.3 -3.8 18 -2.6 3.3 0.6 3.5 0.9 3.5 4.4 0 5.4 -1.1 6.4 -6.1 6.2 -7.8 -0.4 -7.7 0.3 0.1 0.9 l7.5 0.6 0.3 9.3 0.3 9.3 -3.8 1.5 c-5.3 2.3 -15.3 1.5 -19.3 -1.4 l-3 -2.3 0 2.6 c0 2.3 -0.4 2.5 -4.5 2.5 -4.4 0 -4.5 -0.1 -4.6 -3.2 l0 -3.3 -1.6 3.3 c-1.5 2.9 -2.1 3.2 -5.9 3.2 -3.5 0 -4.4 -0.4 -5 -2.2 l-0.7 -2.3 -0.8 2.3 c-0.7 1.8 -1.6 2.2 -5.4 2.2 l-4.5 0 -0.1 -9.2 -0.1 -9.3 -3 9.3 -2.9 9.2 -4.4 0 -4.4 0 -1.7 -5.5 c-1 -3 -2 -5.5 -2.3 -5.5 -0.4 0 -1.3 2.4 -2.1 5.3 -1.5 5.1 -1.5 5.2 -5.8 5.5 -4 0.3 -4.3 0.1 -5.6 -3z m75.3 -14.5 c0 -3.4 -0.1 -3.6 -1.1 -1.6 -0.6 1.2 -0.8 2.9 -0.5 3.7 1.1 2.7 1.7 1.8 1.6 -2.1z"/>
  <path d="M531.3 723.5 c-5.7 -2.4 -7.4 -6.6 -7.1 -16.7 0.3 -8.4 0.4 -8.9 3.6 -12 l3.2 -3.3 13.9 -0.3 13.8 -0.2 1.1 2.5 c1.5 3.2 2.9 3.2 4.4 0 l1.1 -2.4 32.4 -0.1 32.4 0 2.5 2.5 c1.9 1.9 2.4 3.4 2.4 7.5 0 2.8 -0.4 6 -1 7 -0.7 1.3 -0.5 3.1 0.5 6 0.8 2.4 1.5 5.8 1.5 7.6 l0 3.4 -4.9 0 -4.9 0 -1.9 -5.2 -1.8 -5.3 -0.3 5.3 -0.3 5.2 -24.2 -0.2 -24.2 -0.3 -0.3 -11 -0.3 -11 -2.9 4.7 c-2.5 4 -3 5.8 -3 11.3 l0 6.5 -5 0 -5 0 0 -6.2 c0 -5.3 -0.5 -7.1 -3.3 -11.7 l-3.2 -5.4 -5.9 0 c-4.8 0 -6.4 0.5 -8.3 2.3 -2.8 2.7 -2.9 4.1 -0.4 7.1 1.6 2 2.8 2.4 7.8 2.4 l5.8 0 0 4.5 c0 3.7 -0.4 4.6 -2.5 5.7 -3.3 1.7 -11.7 1.6 -15.7 -0.2z m80.7 -10.1 c0 -1.2 -0.9 -1.4 -4.2 -1.2 -5.9 0.4 -6.3 2.8 -0.4 2.8 3.5 0 4.6 -0.4 4.6 -1.6z m0 -11.4 c0 -0.5 -2.1 -0.9 -4.7 -0.8 l-4.8 0.1 4.5 0.7 c2.5 0.4 4.6 0.8 4.8 0.8 0.1 0.1 0.2 -0.2 0.2 -0.8z"/>
  <path d="M643.2 723 c-2.9 -1.8 -3.3 -2.5 -3 -5.8 0.3 -3.6 0.5 -3.7 4.8 -4.3 2.5 -0.3 3.7 -0.7 2.7 -0.7 -1 -0.1 -2.9 -1.3 -4.2 -2.7 -2.1 -2 -2.5 -3.4 -2.5 -8.4 0 -7.8 2.5 -10.1 10.9 -10.1 6.4 0 10.1 1.9 10.1 5.3 l0 2.1 1.6 -2.2 c2.5 -3.6 6.8 -5.2 13.8 -5.2 5.9 0 6.9 0.3 10.1 3.1 l3.6 3.2 3 -2.9 3 -2.9 37.4 -0.3 37.4 -0.3 1.7 3.2 1.6 3.2 2 -3.1 c1.8 -2.9 2.5 -3.2 6.9 -3.2 l4.9 0 0 3.6 c0 2.6 -1.3 5.8 -4.5 10.8 -4.1 6.6 -4.5 7.9 -4.5 13.4 l0 6.2 -5 0 -5 0 0 -6.6 c0 -5.6 -0.5 -7.4 -3.2 -12 -2.9 -4.8 -3.7 -5.4 -6.5 -5.4 l-3.2 0 -0.3 11.8 -0.3 11.7 -4.7 0.3 -4.8 0.3 0 -12 0 -12.1 -8.2 0.2 c-6.6 0.1 -7.4 0.2 -3.8 0.7 l4.5 0.6 0.3 4.8 0.3 4.7 -4.5 0 c-3.4 0 -4.6 0.4 -4.6 1.5 0 1.2 1.3 1.5 6.1 1.5 l6 0 -0.3 4.8 -0.3 4.7 -20.5 0.2 c-22.1 0.2 -25.8 -0.3 -29 -4.4 l-2 -2.6 -2 2.6 c-4.3 5.5 -17.9 6.3 -22.8 1.4 l-2.5 -2.5 -2.2 2.6 c-1.9 2.2 -3.2 2.6 -8.6 2.9 -5.2 0.3 -7 0 -9.7 -1.7z m36.7 -11.6 c2.7 -3.5 2.6 -4.9 -0.5 -8 -2.5 -2.5 -2.6 -2.6 -4.6 -0.8 -3.5 3.2 -3.8 4.8 -1.8 8.2 2.4 3.9 4.2 4 6.9 0.6z m31.4 1.6 c2.6 0 2.7 -0.2 2.7 -5.4 l0 -5.4 -4.7 -0.4 c-4.1 -0.3 -5.1 0 -7 2.1 -2.8 3 -2.9 4.1 -0.2 7.5 1.6 2 2.8 2.6 4.3 2.2 1.1 -0.3 3.3 -0.6 4.9 -0.6z"/>
  <path d="M591.5 644 c-38.5 -4.1 -70.7 -32 -81.1 -70.6 -2.7 -10 -2.7 -41.8 0 -51.8 4.7 -17.5 13.5 -32.5 26.3 -44.7 13.2 -12.6 24.8 -19 42.3 -23.6 8.1 -2.2 11.7 -2.6 25 -2.6 17.3 0 24.6 1.2 37.5 6.2 22.6 8.7 39.7 24.4 50.5 46.6 7.4 15 9.4 24.5 9.4 44 0 13.2 -0.4 17.6 -2.2 24.9 -9.8 39.2 -42.3 67.5 -82.2 71.6 -11.2 1.1 -15 1.1 -25.5 0z m15.1 -49.1 c27.2 -2.6 40.9 -10.3 49.2 -27.7 3.3 -6.9 3.7 -8.5 3.7 -15.7 0 -4.4 -0.6 -10.1 -1.4 -12.8 l-1.4 -4.7 -3.6 6.1 c-9.1 15.4 -37.5 39.6 -61.4 52.3 l-6.9 3.6 5.4 0 c3 0 10.4 -0.5 16.4 -1.1z m-26.9 -14.3 c4.1 -2 8.8 -4.5 10.4 -5.6 l2.9 -2.1 -8.1 -9.1 c-9.6 -10.9 -12.6 -15.8 -15.9 -26 l-2.6 -7.7 -4.1 6.2 c-9.6 14.3 -15.1 29.2 -13.3 35.9 1.3 4.7 4.3 8.4 8.8 10.8 5.2 2.9 12.4 2.1 21.9 -2.4z m13.3 -77.7 c1.9 -1.3 6.6 -4.1 10.5 -6.2 6.7 -3.6 6.8 -3.8 3 -3.2 -8.7 1.4 -18.8 8.1 -22.2 14.9 l-1.5 3.1 3.3 -3.1 c1.9 -1.7 5 -4.2 6.9 -5.5z m66 -3.8 c-2.2 -4.3 -6.8 -7.3 -13 -8.5 -3.9 -0.8 -4.1 -1 4.4 5.1 2.1 1.5 5.2 4.8 7 7.2 2.6 3.7 3.1 4 3.4 2.3 0.2 -1.1 -0.6 -3.9 -1.8 -6.1z"/>
  <path d="M596 327.8 c0 -2.4 0.3 -6 0.6 -8 l0.7 -3.8 7.8 0 7.9 0 0 5.8 c0 10.2 -0.1 10.2 -9.1 10.2 l-7.9 0 0 -4.2z"/>
 </g>
 <g fill="#ffffff">
  <path d="M321.8 747.8 c3.9 -7.3 25.1 -48.2 47.2 -90.8 22.2 -42.6 77.3 -148.4 122.5 -235 45.2 -86.6 89.1 -170.7 97.4 -186.7 8.4 -16.1 15.6 -29.3 15.9 -29.3 0.4 0 18.3 33.9 39.9 75.3 21.5 41.3 86.2 165.6 143.7 276 57.6 110.4 104.9 201.4 105.3 202.2 0.4 1.3 -34.8 1.5 -289.2 1.5 l-289.6 0 6.9 -13.2z m554.9 3 c-1 -2.7 -270.8 -518.3 -271.5 -519 -0.8 -0.8 -230.1 435.6 -271.3 516.5 l-1.9 3.7 272.6 0 c217.7 0 272.5 -0.3 272.1 -1.2z"/>
  <path d="M372 733.3 c0 -0.4 5.5 -12.1 12.2 -26 l12.1 -25.3 208.4 0 208.4 0 12.5 25.6 c6.8 14.1 12.4 25.8 12.4 26 0 0.2 -104.8 0.4 -233 0.4 -128.2 0 -233 -0.3 -233 -0.7z m66.4 -21.6 c1.6 -5.3 3.2 -9.7 3.5 -9.7 0.4 0 2.1 4.5 4 10 1.9 6.1 3.8 10 4.6 10 0.8 0 2.6 -4.3 4.8 -11.2 5.2 -16.6 5.3 -16.8 3 -16.8 -1.6 0 -2.5 1.7 -4.7 9.1 -1.5 5.1 -3.1 8.8 -3.5 8.3 -0.5 -0.5 -2.1 -4.6 -3.6 -9.2 -2.3 -7.2 -3 -8.3 -4.8 -8 -1.7 0.2 -2.6 1.9 -4.7 8.5 -1.4 4.5 -2.8 8.5 -3.1 8.8 -0.4 0.3 -2.1 -3.5 -3.9 -8.4 -2.5 -7.1 -3.7 -9.1 -5.1 -9.1 -1.1 0 -1.9 0.2 -1.9 0.4 0 0.7 7.1 20.8 8.6 24.4 0.8 1.9 1.9 3.2 2.6 3 0.7 -0.3 2.6 -4.8 4.2 -10.1z m29.6 1.3 l0.5 -8.5 3.9 8.8 c2.1 4.8 4.4 8.7 5.1 8.7 0.6 0 3.2 -4.2 5.6 -9.2 l4.4 -9.3 0.3 9.3 c0.2 7.3 0.6 9.2 1.7 9.2 1.3 0 1.5 -2.4 1.5 -14.1 0 -13.6 -0.1 -14 -2.1 -13.7 -1.5 0.2 -3.1 2.7 -6.1 9.3 -2.2 5 -4.4 9.4 -4.8 9.9 -0.5 0.5 -2.9 -3.6 -5.6 -9.3 -3.5 -7.5 -5.2 -10.1 -6.5 -10.1 -1.8 0 -1.9 1 -1.9 14.1 0 12.8 0.2 14 1.8 13.7 1.4 -0.3 1.8 -1.8 2.2 -8.8z m45.6 7.5 l3.5 -1.4 -0.3 -6.3 -0.3 -6.3 -4.7 -0.3 c-4.3 -0.3 -4.8 -0.1 -4.8 1.7 0 1.7 0.6 2.1 3 2.1 2.7 0 3 0.3 3 3.4 0 7.9 -12.7 4.9 -14.4 -3.4 -0.7 -3.9 1.5 -9.4 4.5 -11 1.2 -0.7 4.1 -1 6.5 -0.7 3.2 0.3 4.4 0.1 4.9 -1.1 0.9 -2.3 -0.2 -2.7 -6.7 -2.7 -5.6 0 -6.2 0.2 -9.4 3.7 -6.4 7 -4.3 18.8 4 22.4 4.1 1.7 6.9 1.7 11.2 -0.1z m32.3 -1 c2.2 -2.1 0.1 -4.1 -2.7 -2.6 -3.4 1.8 -6.2 1.3 -9.3 -1.8 -4 -4.1 -4.1 -10.6 -0.2 -14.5 2.4 -2.4 3.4 -2.7 7.7 -2.4 5.8 0.4 7.2 -1.3 2.6 -3.2 -4.4 -1.8 -9.8 -0.6 -13.4 2.9 -4 4 -4.8 12.8 -1.6 17.9 3.6 5.8 12.8 7.8 16.9 3.7z m18.1 -4 c0 -5.8 0.4 -7.1 4.1 -13.2 2.3 -3.8 4.3 -7.1 4.6 -7.5 0.2 -0.5 -0.6 -0.8 -1.9 -0.8 -1.7 0 -3.1 1.4 -5.3 5 -1.6 2.8 -3.2 5 -3.6 5 -0.5 0 -2 -2.2 -3.6 -5 -2.1 -3.8 -3.4 -5 -5.1 -5 l-2.4 0 2.8 4.8 c1.5 2.6 3.6 6.1 4.6 7.7 1.2 2 1.8 5 1.8 9.3 0 5.5 0.2 6.2 2 6.2 1.8 0 2 -0.7 2 -6.5z m27.1 3.6 c2.1 -2.6 2.5 -7.2 0.8 -10.2 -0.7 -1.4 -0.7 -3 -0.1 -4.8 1.2 -3.3 -0.7 -8.4 -3.3 -9.5 -0.9 -0.3 -4.1 -0.6 -7.1 -0.6 l-5.4 0 0 13.3 c0 7.4 0.3 13.7 0.8 14.1 0.4 0.4 3.4 0.6 6.6 0.4 4.6 -0.4 6.3 -0.9 7.7 -2.7z m20.9 0.9 c0 -1.8 -0.7 -2 -6.1 -2 l-6 0 0.3 -4.2 c0.3 -4.3 0.3 -4.3 4.6 -4.6 3.4 -0.3 4.3 -0.7 4 -2 -0.2 -1.2 -1.5 -1.8 -4.6 -2 -4.1 -0.3 -4.2 -0.4 -4.2 -3.7 l0 -3.4 5.7 -0.3 c4.6 -0.2 5.9 -0.7 6.1 -2 0.3 -1.6 -0.6 -1.8 -7.7 -1.8 l-8.1 0 0 13.3 c0 7.4 0.3 13.7 0.7 14 0.3 0.4 3.9 0.7 8 0.7 6.6 0 7.3 -0.2 7.3 -2z m7 -4 c0 -5.7 0.1 -6 2.5 -6 2.7 0 4.6 2.4 6.5 8.3 0.8 2.6 1.7 3.7 3.1 3.7 2.2 0 2.2 -0.4 -1.1 -9.1 -1.6 -4.4 -1.6 -4.7 0.2 -6.8 2.5 -3.2 2.3 -6.7 -0.7 -9.6 -2 -2.1 -3.4 -2.5 -8.5 -2.5 l-6 0 0 14 c0 13.3 0.1 14 2 14 1.8 0 2 -0.7 2 -6z m39.8 2.5 c4 -4.7 2.1 -9.2 -5.6 -12.8 -7.4 -3.5 -6.6 -9.8 0.8 -7 1.7 0.6 3.3 0.7 4.1 0.2 1.1 -0.8 0.9 -1.3 -1 -2.9 -6.6 -5.6 -16.1 1.6 -12 9.1 0.5 1.1 3.5 3.1 6.5 4.4 5.6 2.5 6.6 4.2 3.8 6.9 -1.9 1.9 -2.8 2 -7.1 0.4 -2.5 -0.9 -3.6 -0.9 -4.4 -0.1 -0.9 0.9 -0.3 1.7 2.2 3.3 4.4 2.7 9.5 2.1 12.7 -1.5z m22.7 2.1 c8.9 -3.7 10.6 -16.5 3.1 -23.3 -8.2 -7.5 -20.6 -1 -20.6 10.7 0 6.9 5.8 13.3 12.8 13.9 0.7 0 2.8 -0.5 4.7 -1.3z m30.4 -1.1 c2.2 -2.1 0.1 -4.1 -2.7 -2.6 -3.4 1.8 -6.2 1.3 -9.3 -1.8 -3.9 -4 -4.1 -10.5 -0.4 -14.5 2.3 -2.5 3.2 -2.7 7.7 -2.4 5.9 0.4 7.4 -1.3 2.8 -3.2 -4.4 -1.8 -9.8 -0.6 -13.4 2.9 -4 4 -4.8 12.8 -1.6 17.9 3.6 5.8 12.8 7.8 16.9 3.7z m9.1 -11.5 c0 -13.3 -0.1 -14 -2 -14 -1.9 0 -2 0.7 -2 14 0 13.3 0.1 14 2 14 1.9 0 2 -0.7 2 -14z m18.8 11.8 c0.3 -1.6 -0.5 -1.8 -5.7 -1.8 l-6.1 0 0 -4.5 0 -4.5 4.6 0 c3.8 0 4.5 -0.3 4.2 -1.7 -0.2 -1.3 -1.5 -1.9 -4.6 -2.1 -4.1 -0.3 -4.2 -0.4 -4.2 -3.8 l0 -3.4 5.5 0 c4.8 0 5.5 -0.2 5.5 -2 0 -1.8 -0.7 -2 -7.5 -2 l-7.5 0 0 14 0 14.1 7.7 -0.3 c6.5 -0.3 7.8 -0.6 8.1 -2z m14 -10.1 l0.3 -11.7 3.4 0 c2.8 0 3.5 -0.4 3.5 -2 0 -1.9 -0.7 -2 -9 -2 -8.3 0 -9 0.1 -9 2 0 1.6 0.7 2 3.5 2 l3.5 0 0 12.1 c0 10.9 0.2 12 1.8 11.7 1.5 -0.3 1.7 -1.8 2 -12.1z m23.2 6.1 c0 -5.5 0.4 -6.8 4.5 -13.4 2.5 -3.9 4.5 -7.4 4.5 -7.8 0 -0.3 -0.9 -0.6 -1.9 -0.6 -1.3 0 -3.1 1.9 -5.4 5.6 l-3.4 5.6 -3.2 -5.6 c-2.2 -3.7 -3.9 -5.6 -5.2 -5.6 -1 0 -1.9 0.3 -1.9 0.7 0 0.4 1.8 3.7 4 7.4 3.6 6 4 7.4 4 13.3 0 5.9 0.2 6.6 2 6.6 1.8 0 2 -0.7 2 -6.2z"/>
  <path d="M580 714 c0 -4.6 1.7 -5.9 5.9 -4.4 5.5 2 3.2 8.4 -3.1 8.4 -2.6 0 -2.8 -0.3 -2.8 -4z"/>
  <path d="M580 701.5 c0 -3.3 0.2 -3.5 3.5 -3.5 3.9 0 5.9 2.4 4.4 5.2 -0.6 1.2 -2.1 1.8 -4.4 1.8 -3.3 0 -3.5 -0.2 -3.5 -3.5z"/>
  <path d="M619 702 c0 -3.9 0.1 -4 3.3 -4 3.4 0 5.7 1.5 5.7 3.6 0 2.2 -3.1 4.4 -6.1 4.4 -2.7 0 -2.9 -0.2 -2.9 -4z"/>
  <path d="M672.7 716.9 c-2.4 -1.4 -4.7 -6.2 -4.7 -9.8 0 -4.3 4.4 -9.1 8.4 -9.1 4.2 0 7.2 2.2 8.6 6.6 2.6 7.9 -5.6 16.2 -12.3 12.3z"/>
  <path d="M403 668.9 c0 -0.8 40.6 -86.3 59.9 -125.9 l5.6 -11.5 0.6 16 c0.7 19.1 1.8 26.1 6.3 39.8 5.9 18.1 14.9 33.9 26.8 47.3 12.4 13.9 25.9 24.6 39.6 31.4 3.4 1.7 6.2 3.3 6.2 3.5 0 0.3 -32.6 0.5 -72.5 0.5 -50.4 0 -72.5 -0.3 -72.5 -1.1z"/>
  <path d="M661 669.6 c0 -0.2 2.4 -1.5 5.3 -3 15 -7.3 31.7 -20.9 43.7 -35.5 20.3 -24.7 30.3 -53.4 30.3 -86.5 l0 -13.8 3 5.8 c5.1 10.1 63.7 132.3 63.7 132.9 0 0.3 -32.8 0.5 -73 0.5 -40.1 0 -73 -0.2 -73 -0.4z"/>
  <path d="M584 666.6 c-33.9 -6.4 -63.3 -25.4 -81.1 -52.6 -13.7 -20.8 -19.5 -38.6 -20.6 -63.6 -0.7 -14.9 0.5 -25.3 4.3 -38.9 11.5 -40.8 44.8 -73.6 86.4 -84.8 21.3 -5.8 48.8 -5 69.5 1.9 35.4 11.8 64.3 39.2 77.1 73.3 10.3 27.3 10.4 59.8 0.4 85.9 -11.7 30.6 -32.5 53.6 -61.5 67.9 -17.5 8.7 -33.6 12.4 -54.2 12.2 -7.6 -0.1 -16.7 -0.7 -20.3 -1.3z m30 -25.6 c39.9 -4.1 72.5 -32.5 82.2 -71.6 3.1 -12.5 3.1 -31.3 0 -43.9 -7.4 -29.8 -29.2 -54.6 -57.7 -65.6 -12.1 -4.7 -20.4 -6.2 -34.5 -6.1 -25.3 0 -45.6 8.3 -64.3 26.1 -12.8 12.2 -21.6 27.2 -26.3 44.7 -2.7 9.9 -2.7 36 0 45.8 7.5 27.7 27.2 51.4 52.1 62.7 8.3 3.7 20.1 6.9 29 7.9 3.8 0.4 7.5 0.8 8.1 0.9 0.7 0 5.8 -0.4 11.4 -0.9z"/>
  <path d="M569.1 598.9 c-8.5 -0.8 -15.1 -3.1 -17.7 -6 -1.8 -2 -1.7 -2 1.9 0.1 5.2 3.1 15.4 3.8 23 1.6 7.3 -2.1 16.9 -7.2 29.2 -15.7 27.8 -19 44.5 -36.5 48.5 -51 l1.6 -6.2 2.2 5.1 c4 9.3 5.4 16.9 5 26.7 -0.3 7.9 -0.8 10 -4 16.8 -6.3 13.1 -16.5 21.1 -32.3 25.1 -11 2.7 -44.5 4.8 -57.4 3.5z"/>
  <path d="M554.5 585.8 c-11.4 -6.7 -12.2 -20.4 -2.3 -40.4 4 -8.1 16 -25.4 17.5 -25.4 0.5 0 0.8 2.8 0.9 6.3 0.1 11.8 6.7 23.7 20.9 38.3 l8.4 8.5 -4.2 3.1 c-2.3 1.7 -8 4.9 -12.6 7.1 -7.2 3.5 -9.4 4.1 -16.5 4.4 -7 0.3 -8.6 0.1 -12.1 -1.9z"/>
  <path d="M576 524.8 c0 -4.1 2.5 -13.8 4.5 -17.8 2.9 -5.6 9.2 -11.5 15.4 -14.3 5.2 -2.4 21.9 -3.6 26.1 -1.9 l2.5 1 -3.3 1.2 c-6.4 2.4 -19.3 9 -25 12.9 -5.6 3.8 -13.7 11.7 -18 17.5 -1.3 1.6 -2.2 2.2 -2.2 1.4z"/>
  <path d="M658 511.3 c-4.9 -9.3 -15.3 -17.2 -30 -23.1 -4.1 -1.6 9.1 -2.6 17.4 -1.2 13.4 2.1 18.6 7.3 18.6 18.4 0 5.1 -1.5 10.6 -2.9 10.6 -0.3 0 -1.7 -2.1 -3.1 -4.7z"/>
  <path d="M693.5 442.7 c-19 -16.2 -41.2 -26.8 -66 -31.2 -4.4 -0.8 -9.7 -1.5 -11.8 -1.5 -2.9 0 -3.8 -0.4 -3.5 -1.5 0.4 -2.2 35.2 -69.4 35.9 -69.5 0.6 0 53.1 109.2 52.7 109.5 -0.2 0.1 -3.4 -2.5 -7.3 -5.8z"/>
  <path d="M509 447.5 c0 -0.9 51 -106.9 51.9 -107.8 0.5 -0.5 3.9 5.1 7.6 12.5 3.7 7.3 11.9 23.1 18.1 35 6.3 11.9 11.4 21.9 11.4 22.1 0 0.2 -3.2 0.7 -7.1 1.1 -9.7 0.9 -20.8 3.2 -29.9 6.3 -11.2 3.7 -30.9 14.3 -39.1 21 -4 3.2 -8.5 6.8 -10 8.1 -1.6 1.3 -2.9 2.1 -2.9 1.7z"/>
  <path d="M587.4 346.1 l0.7 -7.1 -6 0 -6.1 0 0 -5 0 -5 7 0 7 0 0 -3.4 c0 -1.9 0.3 -4.1 0.6 -5 0.5 -1.4 -0.4 -1.6 -6 -1.6 l-6.6 0 0 -4.5 0 -4.5 6.9 0 7 0 0.6 -5.7 c0.9 -8.3 0.9 -8.3 6 -8.3 l4.6 0 -0.6 3.5 c-0.3 1.9 -0.7 5.1 -1.1 7.1 l-0.5 3.5 5.3 -0.3 5.3 -0.3 0.9 -6.7 0.8 -6.8 4.5 0 4.6 0 -0.7 7 -0.7 7 6.5 0 6.6 0 0 4.5 0 4.4 -7.2 0.3 -7.3 0.3 -0.5 4.7 -0.6 4.7 6.1 0.3 6 0.3 0.3 4.8 0.3 4.7 -7 0 -7 0 -0.6 5.8 c-0.9 8.2 -0.9 8.2 -6 8.2 l-4.6 0 0.6 -3.5 c0.3 -1.9 0.7 -5.1 1.1 -7.1 l0.5 -3.5 -5.3 0.3 -5.2 0.3 -1.1 6.5 -1 6.5 -4.4 0.3 -4.4 0.3 0.7 -7z m22 -19.3 c0.3 -1.3 0.6 -3.5 0.6 -5 0 -2.7 -0.2 -2.8 -4.9 -2.8 -4.8 0 -4.8 0 -5.5 3.8 -1 6.2 -1 6.2 4.3 6.2 4.2 0 4.9 -0.3 5.5 -2.2z"/>
 </g>
</svg>
